<svg width="381" height="6" viewBox="0 0 381 6" fill="none" xmlns="http://www.w3.org/2000/svg">
<path fill-rule="evenodd" clip-rule="evenodd" d="M1.41421 4.24264C0.633165 3.4616 0.633165 2.19527 1.41421 1.41422C2.19526 0.633168 3.46159 0.633168 4.24264 1.41422C5.02369 2.19527 5.02369 3.4616 4.24264 4.24264C3.46159 5.02369 2.19526 5.02369 1.41421 4.24264Z" fill="white"/>
<path fill-rule="evenodd" clip-rule="evenodd" d="M185.179 4.24264C184.398 3.4616 184.398 2.19527 185.179 1.41422C185.96 0.633168 187.226 0.633168 188.007 1.41422C188.788 2.19527 188.788 3.4616 188.007 4.24264C187.226 5.02369 185.96 5.02369 185.179 4.24264Z" fill="white"/>
<path fill-rule="evenodd" clip-rule="evenodd" d="M93.2965 4.24264C92.5154 3.4616 92.5154 2.19527 93.2965 1.41422C94.0775 0.633168 95.3439 0.633168 96.1249 1.41422C96.906 2.19527 96.906 3.4616 96.1249 4.24264C95.3439 5.02369 94.0775 5.02369 93.2965 4.24264Z" fill="white"/>
<path fill-rule="evenodd" clip-rule="evenodd" d="M277.061 4.24264C276.28 3.4616 276.28 2.19527 277.061 1.41422C277.842 0.633168 279.108 0.633168 279.889 1.41422C280.67 2.19527 280.67 3.4616 279.889 4.24264C279.108 5.02369 277.842 5.02369 277.061 4.24264Z" fill="white"/>
<path fill-rule="evenodd" clip-rule="evenodd" d="M32.0417 4.24264C31.2606 3.4616 31.2606 2.19527 32.0417 1.41422C32.8227 0.633168 34.089 0.633168 34.8701 1.41422C35.6511 2.19527 35.6511 3.4616 34.8701 4.24264C34.089 5.02369 32.8227 5.02369 32.0417 4.24264Z" fill="white"/>
<path fill-rule="evenodd" clip-rule="evenodd" d="M215.806 4.24264C215.025 3.4616 215.025 2.19527 215.806 1.41422C216.587 0.633168 217.853 0.633168 218.635 1.41422C219.416 2.19527 219.416 3.4616 218.635 4.24264C217.853 5.02369 216.587 5.02369 215.806 4.24264Z" fill="white"/>
<path fill-rule="evenodd" clip-rule="evenodd" d="M123.924 4.24264C123.143 3.4616 123.143 2.19527 123.924 1.41422C124.705 0.633168 125.971 0.633168 126.752 1.41422C127.533 2.19527 127.533 3.4616 126.752 4.24264C125.971 5.02369 124.705 5.02369 123.924 4.24264Z" fill="white"/>
<path fill-rule="evenodd" clip-rule="evenodd" d="M307.688 4.24264C306.907 3.4616 306.907 2.19527 307.688 1.41422C308.469 0.633168 309.736 0.633168 310.517 1.41422C311.298 2.19527 311.298 3.4616 310.517 4.24264C309.736 5.02369 308.469 5.02369 307.688 4.24264Z" fill="white"/>
<path fill-rule="evenodd" clip-rule="evenodd" d="M368.943 4.24264C368.162 3.4616 368.162 2.19527 368.943 1.41422C369.724 0.633168 370.991 0.633168 371.772 1.41422C372.553 2.19527 372.553 3.4616 371.772 4.24264C370.991 5.02369 369.724 5.02369 368.943 4.24264Z" fill="white"/>
<path fill-rule="evenodd" clip-rule="evenodd" d="M62.669 4.24264C61.888 3.4616 61.888 2.19527 62.669 1.41422C63.4501 0.633168 64.7164 0.633168 65.4975 1.41422C66.2785 2.19527 66.2785 3.4616 65.4975 4.24264C64.7164 5.02369 63.4501 5.02369 62.669 4.24264Z" fill="white"/>
<path fill-rule="evenodd" clip-rule="evenodd" d="M246.434 4.24264C245.653 3.4616 245.653 2.19527 246.434 1.41422C247.215 0.633168 248.481 0.633168 249.262 1.41422C250.043 2.19527 250.043 3.4616 249.262 4.24264C248.481 5.02369 247.215 5.02369 246.434 4.24264Z" fill="white"/>
<path fill-rule="evenodd" clip-rule="evenodd" d="M154.551 4.24264C153.77 3.4616 153.77 2.19527 154.551 1.41422C155.332 0.633168 156.599 0.633168 157.38 1.41422C158.161 2.19527 158.161 3.4616 157.38 4.24264C156.599 5.02369 155.332 5.02369 154.551 4.24264Z" fill="white"/>
<path fill-rule="evenodd" clip-rule="evenodd" d="M338.316 4.24264C337.535 3.4616 337.535 2.19527 338.316 1.41422C339.097 0.633168 340.363 0.633168 341.144 1.41422C341.925 2.19527 341.925 3.4616 341.144 4.24264C340.363 5.02369 339.097 5.02369 338.316 4.24264Z" fill="white"/>
<path fill-rule="evenodd" clip-rule="evenodd" d="M16.7279 4.24264C15.9469 3.4616 15.9469 2.19527 16.7279 1.41422C17.509 0.633168 18.7753 0.633168 19.5564 1.41422C20.3374 2.19527 20.3374 3.4616 19.5564 4.24264C18.7753 5.02369 17.509 5.02369 16.7279 4.24264Z" fill="white"/>
<path fill-rule="evenodd" clip-rule="evenodd" d="M200.492 4.24264C199.711 3.4616 199.711 2.19527 200.492 1.41422C201.273 0.633168 202.54 0.633168 203.321 1.41422C204.102 2.19527 204.102 3.4616 203.321 4.24264C202.54 5.02369 201.273 5.02369 200.492 4.24264Z" fill="white"/>
<path fill-rule="evenodd" clip-rule="evenodd" d="M108.61 4.24264C107.829 3.4616 107.829 2.19527 108.61 1.41422C109.391 0.633168 110.658 0.633168 111.439 1.41422C112.22 2.19527 112.22 3.4616 111.439 4.24264C110.658 5.02369 109.391 5.02369 108.61 4.24264Z" fill="white"/>
<path fill-rule="evenodd" clip-rule="evenodd" d="M292.375 4.24264C291.594 3.4616 291.594 2.19527 292.375 1.41422C293.156 0.633168 294.422 0.633168 295.203 1.41422C295.984 2.19527 295.984 3.4616 295.203 4.24264C294.422 5.02369 293.156 5.02369 292.375 4.24264Z" fill="white"/>
<path fill-rule="evenodd" clip-rule="evenodd" d="M47.3553 4.24264C46.5743 3.4616 46.5743 2.19527 47.3553 1.41422C48.1364 0.633168 49.4027 0.633168 50.1837 1.41422C50.9648 2.19527 50.9648 3.4616 50.1837 4.24264C49.4027 5.02369 48.1364 5.02369 47.3553 4.24264Z" fill="white"/>
<path fill-rule="evenodd" clip-rule="evenodd" d="M231.12 4.24264C230.339 3.4616 230.339 2.19527 231.12 1.41422C231.901 0.633168 233.167 0.633168 233.948 1.41422C234.729 2.19527 234.729 3.4616 233.948 4.24264C233.167 5.02369 231.901 5.02369 231.12 4.24264Z" fill="white"/>
<path fill-rule="evenodd" clip-rule="evenodd" d="M139.238 4.24264C138.457 3.4616 138.457 2.19527 139.238 1.41422C140.019 0.633168 141.285 0.633168 142.066 1.41422C142.847 2.19527 142.847 3.4616 142.066 4.24264C141.285 5.02369 140.019 5.02369 139.238 4.24264Z" fill="white"/>
<path fill-rule="evenodd" clip-rule="evenodd" d="M323.002 4.24264C322.221 3.4616 322.221 2.19527 323.002 1.41422C323.783 0.633168 325.049 0.633168 325.831 1.41422C326.612 2.19527 326.612 3.4616 325.831 4.24264C325.049 5.02369 323.783 5.02369 323.002 4.24264Z" fill="white"/>
<path fill-rule="evenodd" clip-rule="evenodd" d="M77.9828 4.24264C77.2017 3.4616 77.2017 2.19527 77.9828 1.41422C78.7638 0.633168 80.0301 0.633168 80.8112 1.41422C81.5922 2.19527 81.5922 3.4616 80.8112 4.24264C80.0301 5.02369 78.7638 5.02369 77.9828 4.24264Z" fill="white"/>
<path fill-rule="evenodd" clip-rule="evenodd" d="M261.747 4.24264C260.966 3.4616 260.966 2.19527 261.747 1.41422C262.528 0.633168 263.795 0.633168 264.576 1.41422C265.357 2.19527 265.357 3.4616 264.576 4.24264C263.795 5.02369 262.528 5.02369 261.747 4.24264Z" fill="white"/>
<path fill-rule="evenodd" clip-rule="evenodd" d="M169.865 4.24264C169.084 3.4616 169.084 2.19527 169.865 1.41422C170.646 0.633168 171.912 0.633168 172.693 1.41422C173.474 2.19527 173.474 3.4616 172.693 4.24264C171.912 5.02369 170.646 5.02369 169.865 4.24264Z" fill="white"/>
<path fill-rule="evenodd" clip-rule="evenodd" d="M353.63 4.24264C352.848 3.4616 352.848 2.19527 353.63 1.41422C354.411 0.633168 355.677 0.633168 356.458 1.41422C357.239 2.19527 357.239 3.4616 356.458 4.24264C355.677 5.02369 354.411 5.02369 353.63 4.24264Z" fill="white"/>
<path fill-rule="evenodd" clip-rule="evenodd" d="M9.07107 4.24264C8.29003 3.4616 8.29003 2.19527 9.07107 1.41422C9.85212 0.633168 11.1185 0.633168 11.8995 1.41422C12.6805 2.19527 12.6805 3.4616 11.8995 4.24264C11.1185 5.02369 9.85212 5.02369 9.07107 4.24264Z" fill="white"/>
<path fill-rule="evenodd" clip-rule="evenodd" d="M192.836 4.24264C192.055 3.4616 192.055 2.19527 192.836 1.41422C193.617 0.633168 194.883 0.633168 195.664 1.41422C196.445 2.19527 196.445 3.4616 195.664 4.24264C194.883 5.02369 193.617 5.02369 192.836 4.24264Z" fill="white"/>
<path fill-rule="evenodd" clip-rule="evenodd" d="M100.953 4.24264C100.172 3.4616 100.172 2.19527 100.953 1.41422C101.734 0.633168 103.001 0.633168 103.782 1.41422C104.563 2.19527 104.563 3.4616 103.782 4.24264C103.001 5.02369 101.734 5.02369 100.953 4.24264Z" fill="white"/>
<path fill-rule="evenodd" clip-rule="evenodd" d="M284.718 4.24264C283.937 3.4616 283.937 2.19527 284.718 1.41422C285.499 0.633168 286.765 0.633168 287.546 1.41422C288.327 2.19527 288.327 3.4616 287.546 4.24264C286.765 5.02369 285.499 5.02369 284.718 4.24264Z" fill="white"/>
<path fill-rule="evenodd" clip-rule="evenodd" d="M39.6985 4.24264C38.9175 3.4616 38.9175 2.19527 39.6985 1.41422C40.4796 0.633168 41.7459 0.633168 42.5269 1.41422C43.308 2.19527 43.308 3.4616 42.5269 4.24264C41.7459 5.02369 40.4796 5.02369 39.6985 4.24264Z" fill="white"/>
<path fill-rule="evenodd" clip-rule="evenodd" d="M223.463 4.24264C222.682 3.4616 222.682 2.19527 223.463 1.41422C224.244 0.633168 225.51 0.633168 226.291 1.41422C227.072 2.19527 227.072 3.4616 226.291 4.24264C225.51 5.02369 224.244 5.02369 223.463 4.24264Z" fill="white"/>
<path fill-rule="evenodd" clip-rule="evenodd" d="M131.581 4.24264C130.8 3.4616 130.8 2.19527 131.581 1.41422C132.362 0.633168 133.628 0.633168 134.409 1.41422C135.19 2.19527 135.19 3.4616 134.409 4.24264C133.628 5.02369 132.362 5.02369 131.581 4.24264Z" fill="white"/>
<path fill-rule="evenodd" clip-rule="evenodd" d="M315.345 4.24264C314.564 3.4616 314.564 2.19527 315.345 1.41422C316.126 0.633168 317.393 0.633168 318.174 1.41422C318.955 2.19527 318.955 3.4616 318.174 4.24264C317.393 5.02369 316.126 5.02369 315.345 4.24264Z" fill="white"/>
<path fill-rule="evenodd" clip-rule="evenodd" d="M376.6 4.24264C375.819 3.4616 375.819 2.19527 376.6 1.41422C377.381 0.633168 378.647 0.633168 379.428 1.41422C380.21 2.19527 380.21 3.4616 379.428 4.24264C378.647 5.02369 377.381 5.02369 376.6 4.24264Z" fill="white"/>
<path fill-rule="evenodd" clip-rule="evenodd" d="M70.3259 4.24264C69.5448 3.4616 69.5448 2.19527 70.3259 1.41422C71.1069 0.633168 72.3733 0.633168 73.1543 1.41422C73.9354 2.19527 73.9354 3.4616 73.1543 4.24264C72.3733 5.02369 71.1069 5.02369 70.3259 4.24264Z" fill="white"/>
<path fill-rule="evenodd" clip-rule="evenodd" d="M254.09 4.24264C253.309 3.4616 253.309 2.19527 254.09 1.41422C254.871 0.633168 256.138 0.633168 256.919 1.41422C257.7 2.19527 257.7 3.4616 256.919 4.24264C256.138 5.02369 254.871 5.02369 254.09 4.24264Z" fill="white"/>
<path fill-rule="evenodd" clip-rule="evenodd" d="M162.208 4.24264C161.427 3.4616 161.427 2.19527 162.208 1.41422C162.989 0.633168 164.256 0.633168 165.037 1.41422C165.818 2.19527 165.818 3.4616 165.037 4.24264C164.256 5.02369 162.989 5.02369 162.208 4.24264Z" fill="white"/>
<path fill-rule="evenodd" clip-rule="evenodd" d="M345.973 4.24264C345.192 3.4616 345.192 2.19527 345.973 1.41422C346.754 0.633168 348.02 0.633168 348.801 1.41422C349.582 2.19527 349.582 3.4616 348.801 4.24264C348.02 5.02369 346.754 5.02369 345.973 4.24264Z" fill="white"/>
<path fill-rule="evenodd" clip-rule="evenodd" d="M24.3848 4.24264C23.6037 3.4616 23.6037 2.19527 24.3848 1.41422C25.1658 0.633168 26.4322 0.633168 27.2132 1.41422C27.9943 2.19527 27.9943 3.4616 27.2132 4.24264C26.4322 5.02369 25.1658 5.02369 24.3848 4.24264Z" fill="white"/>
<path fill-rule="evenodd" clip-rule="evenodd" d="M208.149 4.24264C207.368 3.4616 207.368 2.19527 208.149 1.41422C208.93 0.633168 210.197 0.633168 210.978 1.41422C211.759 2.19527 211.759 3.4616 210.978 4.24264C210.197 5.02369 208.93 5.02369 208.149 4.24264Z" fill="white"/>
<path fill-rule="evenodd" clip-rule="evenodd" d="M116.267 4.24264C115.486 3.4616 115.486 2.19527 116.267 1.41422C117.048 0.633168 118.314 0.633168 119.095 1.41422C119.877 2.19527 119.877 3.4616 119.095 4.24264C118.314 5.02369 117.048 5.02369 116.267 4.24264Z" fill="white"/>
<path fill-rule="evenodd" clip-rule="evenodd" d="M300.032 4.24264C299.25 3.4616 299.25 2.19527 300.032 1.41422C300.813 0.633168 302.079 0.633168 302.86 1.41422C303.641 2.19527 303.641 3.4616 302.86 4.24264C302.079 5.02369 300.813 5.02369 300.032 4.24264Z" fill="white"/>
<path fill-rule="evenodd" clip-rule="evenodd" d="M55.0122 4.24264C54.2311 3.4616 54.2311 2.19527 55.0122 1.41422C55.7932 0.633168 57.0596 0.633168 57.8406 1.41422C58.6217 2.19527 58.6217 3.4616 57.8406 4.24264C57.0596 5.02369 55.7932 5.02369 55.0122 4.24264Z" fill="white"/>
<path fill-rule="evenodd" clip-rule="evenodd" d="M238.777 4.24264C237.996 3.4616 237.996 2.19527 238.777 1.41422C239.558 0.633168 240.824 0.633168 241.605 1.41422C242.386 2.19527 242.386 3.4616 241.605 4.24264C240.824 5.02369 239.558 5.02369 238.777 4.24264Z" fill="white"/>
<path fill-rule="evenodd" clip-rule="evenodd" d="M146.894 4.24264C146.113 3.4616 146.113 2.19527 146.894 1.41422C147.675 0.633168 148.942 0.633168 149.723 1.41422C150.504 2.19527 150.504 3.4616 149.723 4.24264C148.942 5.02369 147.675 5.02369 146.894 4.24264Z" fill="white"/>
<path fill-rule="evenodd" clip-rule="evenodd" d="M330.659 4.24264C329.878 3.4616 329.878 2.19527 330.659 1.41422C331.44 0.633168 332.706 0.633168 333.487 1.41422C334.268 2.19527 334.268 3.4616 333.487 4.24264C332.706 5.02369 331.44 5.02369 330.659 4.24264Z" fill="white"/>
<path fill-rule="evenodd" clip-rule="evenodd" d="M85.6396 4.24264C84.8586 3.4616 84.8586 2.19527 85.6396 1.41422C86.4207 0.633168 87.687 0.633168 88.468 1.41422C89.2491 2.19527 89.2491 3.4616 88.468 4.24264C87.687 5.02369 86.4207 5.02369 85.6396 4.24264Z" fill="white"/>
<path fill-rule="evenodd" clip-rule="evenodd" d="M269.404 4.24264C268.623 3.4616 268.623 2.19527 269.404 1.41422C270.185 0.633168 271.451 0.633168 272.233 1.41422C273.014 2.19527 273.014 3.4616 272.233 4.24264C271.451 5.02369 270.185 5.02369 269.404 4.24264Z" fill="white"/>
<path fill-rule="evenodd" clip-rule="evenodd" d="M177.522 4.24264C176.741 3.4616 176.741 2.19527 177.522 1.41422C178.303 0.633168 179.569 0.633168 180.35 1.41422C181.131 2.19527 181.131 3.4616 180.35 4.24264C179.569 5.02369 178.303 5.02369 177.522 4.24264Z" fill="white"/>
<path fill-rule="evenodd" clip-rule="evenodd" d="M361.286 4.24264C360.505 3.4616 360.505 2.19527 361.286 1.41422C362.067 0.633168 363.334 0.633168 364.115 1.41422C364.896 2.19527 364.896 3.4616 364.115 4.24264C363.334 5.02369 362.067 5.02369 361.286 4.24264Z" fill="white"/>
</svg>
