<svg width="161" height="161" viewBox="0 0 161 161" fill="none" xmlns="http://www.w3.org/2000/svg">
<g filter="url(#filter0_d_1_349)">
<path fill-rule="evenodd" clip-rule="evenodd" d="M80.0256 112.051C106.549 112.051 128.051 90.5494 128.051 64.0256C128.051 37.5018 106.549 16 80.0256 16C53.5018 16 32 37.5018 32 64.0256C32 90.5494 53.5018 112.051 80.0256 112.051Z" fill="white"/>
</g>
<path d="M99.2085 36.9568C99.3853 36.5215 99.0253 36.0941 99.0253 36.0941C99.0253 36.0941 96.1976 31.2836 86.1929 30.2163C80.836 29.6455 73.5433 30.7293 68.4317 33.4858C59.1701 38.4762 57.7833 46.6971 57.7833 46.6971C57.7312 46.8983 57.6424 47.5112 57.8507 47.7726C58.0628 48.0387 58.3714 48.0338 58.7544 47.9045C62.0231 46.8003 71.7654 43.5695 77.9134 41.9379C86.6628 39.6183 93.8502 38.2068 98.4636 37.4208C98.791 37.3653 99.0849 37.2579 99.2085 36.9568Z" fill="#FFBB36"/>
<path d="M109.199 75.7014C103.962 87.4622 93.9155 95.647 80.7483 95.8335C71.16 95.9695 62.6984 92.6846 56.5873 86.9549L52.8912 88.5362L52.8974 82.8137C48.8706 77.3821 46.5358 70.5116 46.5358 62.7066C46.5358 42.7162 61.8471 26.9582 83.201 26.9582C86.6865 26.9582 89.8368 27.5006 92.2118 28.0387C88.5525 26.8676 84.9163 26.2331 80.8688 26.2331C57.9511 26.2331 42.528 44.8162 42.5273 63.9804C42.5273 84.8644 58.9105 102.357 80.4146 102.357C100.954 102.357 112.035 87.8764 115.579 79.1675L109.199 75.7014Z" fill="#0066B3"/>
<path d="M103.883 71.5695C106.897 71.2276 108.982 70.0163 110.126 68.8928C111.169 67.8681 111.413 66.4571 111.414 65.4089C111.456 63.8689 111.414 59.009 111.414 59.009L103.439 60.7346C103.439 60.7346 103.438 61.3359 103.436 62.5977C103.45 63.8301 104.044 64.5011 105.336 64.2634C105.741 64.1971 106.364 63.9984 106.364 63.9984L106.375 65.5214C106.368 65.4778 106.493 66.3706 104.483 66.768C101.853 67.1809 100.657 65.5624 100.626 62.7025C100.678 59.6374 102.411 57.8698 104.513 57.3857C106.879 56.8432 108.218 57.4068 109.004 57.5268C111.646 57.9224 112.395 53.9619 109.992 53.0329C108.216 52.3173 105.911 52.1881 103.714 52.6267C100.781 53.2117 95.0117 55.6671 94.9957 63.6451C95.0114 69.9846 99.6852 72.0505 103.883 71.5695Z" fill="#EC1D23"/>
<path d="M77.9575 78.3642C77.9575 78.3642 80.4046 77.5248 80.6162 77.4505C82.583 76.7718 83.2996 75.6023 83.2909 73.5782C83.2661 71.3804 83.2625 67.0948 83.2625 67.0948L88.9524 73.651C89.8768 74.6055 91.0351 74.687 92.0957 74.3758C93.1922 74.0548 94.1051 73.0523 94.1327 71.6385C94.1418 66.9041 94.1304 55.3492 94.1304 55.3492C94.1304 55.3492 92.6601 55.6612 91.4395 56.0072C90.0352 56.4051 88.9548 57.3005 88.9548 59.6643C88.9548 60.5011 88.9517 65.3034 88.9517 65.3034C88.9517 65.3034 85.7493 61.2871 83.6552 59.1923C82.5355 58.0739 80.683 58.7415 80.683 58.7415L77.9529 59.5678L77.9575 78.3642Z" fill="#EC1D23"/>
<path d="M76.2348 59.9912C76.2348 59.9912 74.5211 60.4939 73.1266 60.9973C71.3159 61.652 70.2721 62.6997 70.2721 65.4407C70.2721 67.9582 70.2677 81.0611 70.2677 81.0611C70.2677 81.0611 71.8539 80.5187 73.3328 79.9608C75.4354 79.168 76.2286 78.0866 76.2286 75.8787C76.2286 73.9813 76.2348 59.9912 76.2348 59.9912Z" fill="#EC1D23"/>
<path d="M67.7308 63.7081C66.158 62.9936 64.8079 63.7904 64.2345 64.6711L59.4 72.8938L59.3915 66.2648L53.6922 68.6257L53.6744 87.3719L57.6891 85.6889C57.6891 85.6889 58.4772 85.4654 58.9528 84.7181C59.3899 84.0296 59.3737 82.8749 59.3737 82.8749L59.3786 76.9305L63.8655 81.6917C64.8507 82.7149 66.6609 83.2403 68.2583 81.95C69.7026 80.7837 69.4788 78.7951 68.6732 77.9046L64.5857 73.79C64.5857 73.79 68.1829 68.1207 68.771 67.1734C69.5516 65.9152 69.1589 64.3568 67.7308 63.7081Z" fill="#EC1D23"/>
<path d="M65.4987 85.7431C65.2866 86.2319 65.7704 86.7167 65.7704 86.7167C67.8449 89.3197 77.0554 92.6201 87.0527 90.2037C102.32 86.5113 105.546 75.7102 105.911 74.1851C105.986 73.8742 106.046 73.3741 105.757 73.074C105.515 72.8234 105.171 72.8208 104.694 72.9313C94.0899 75.424 76.4443 80.8103 66.271 85.1692C65.8331 85.3568 65.6349 85.4257 65.4987 85.7431Z" fill="#FFBB36"/>
<path fill-rule="evenodd" clip-rule="evenodd" d="M55.7842 65.7364C58.2442 64.7171 60.1326 63.3223 60.0874 60.7008C60.0645 59.3358 59.0392 58.3495 57.8385 58.1493C59.0578 57.1689 59.6196 56.0534 59.6196 54.741C59.6196 52.7741 57.8883 51.4826 54.944 52.554C53.9082 52.9308 50.7335 54.2251 50.7335 54.2251L50.7451 67.8771L55.7842 65.7364ZM54.2114 58.173C54.4586 58.0765 54.6403 57.9952 54.8478 57.894C55.5997 57.5279 56.1349 56.8487 56.1411 55.9693C56.1488 54.9678 55.3241 54.709 54.213 55.2834L54.2114 58.173ZM56.4441 61.1754C56.4301 60.1422 55.6268 59.5783 54.2388 60.2751L54.2359 63.5966C54.2359 63.5966 54.6847 63.398 55.014 63.2447C55.8255 62.8682 56.4631 62.1911 56.4441 61.1754Z" fill="#EC1D23"/>
<path d="M69.6533 49.1779C69.6533 48.0281 68.8624 47.7223 67.9058 47.9976C67.1324 48.219 66.2316 48.5707 66.2316 48.5707L66.2254 57.0582C66.2161 57.9036 66.0852 58.9618 65.0438 59.224C64.2443 59.4255 63.8663 58.8921 63.8655 58.0483L63.8542 51.1014C63.8542 49.9456 63.0501 49.5996 62.0966 49.9159C61.0247 50.2739 60.3806 50.5316 60.3806 50.5316C60.3806 50.5316 60.393 56.5418 60.3783 58.9453C60.3646 61.7627 62.3072 63.1693 65.268 62.2948C67.88 61.5224 69.6241 60.0608 69.6571 56.3086L69.6533 49.1779Z" fill="#EC1D23"/>
<path d="M97.6587 52.6856C98.4112 52.5233 98.8806 51.9912 98.8806 51.0718C98.8806 50.2434 98.8837 49.6135 98.8837 49.6135L94.7962 50.5066L94.8037 48.1019C94.8037 48.1019 96.8071 47.6771 97.3635 47.5558C98.0626 47.4026 98.4287 47.0214 98.4287 46.2225C98.4287 45.4773 98.4241 44.8324 98.4241 44.8324L94.8024 45.6009L94.8016 43.6942C94.8016 43.6942 96.6843 43.3012 97.699 43.088C98.4894 42.9218 98.7503 42.3804 98.7503 41.6355C98.7503 41.1503 98.758 40.1901 98.758 40.1901C96.9514 40.5091 93.5173 41.1952 91.3758 41.6858L91.3466 54.1309C91.3466 54.1309 95.4189 53.1717 97.6587 52.6856Z" fill="#EC1D23"/>
<path fill-rule="evenodd" clip-rule="evenodd" d="M74.0339 57.4478C74.0373 56.4861 74.044 54.1028 74.044 54.1028L76.9932 57.1464C77.9428 58.1128 79.1556 57.6713 79.609 57.2453C80.3739 56.5256 80.3264 55.3347 79.6464 54.6759L77.4337 52.5514C78.4406 51.7166 79.5615 50.4973 79.5778 48.4879C79.6113 46.3773 77.7531 45.1885 75.1404 45.7962C73.459 46.1869 70.5998 47.183 70.5998 47.183L70.5944 59.9984C70.5944 59.9984 71.9791 59.5218 72.6306 59.2983C73.4099 59.0005 74.0256 58.3495 74.0339 57.4478ZM74.0417 52.1813C74.0399 52.1823 74.0389 52.1828 74.0388 52.1829L74.0396 48.6257C74.7157 48.3777 76.0188 48.0681 76.0387 49.4829C76.0604 51.102 74.1275 52.1354 74.0417 52.1813Z" fill="#EC1D23"/>
<path fill-rule="evenodd" clip-rule="evenodd" d="M99.6387 40.0242L99.6333 52.3124L101.515 51.9416C102.455 51.7473 102.978 51.0872 102.987 50.1817C102.989 49.2721 102.98 47.1886 102.98 47.1886L105.868 50.576C106.395 51.1577 107.302 51.4599 108.218 50.8823C109.15 50.2937 109.178 49.092 108.548 48.3891C108.079 47.8676 106.33 45.8963 106.33 45.8963C107.282 45.2525 108.402 44.1793 108.416 42.3959C108.451 40.3679 106.725 38.9404 104.153 39.2707C103.227 39.3899 99.6387 40.0242 99.6387 40.0242ZM104.946 42.936C104.968 44.532 102.978 45.2902 102.974 45.2902L102.969 41.9707C103.596 41.8305 104.925 41.5862 104.946 42.936Z" fill="#EC1D23"/>
<path d="M90.542 47.1549L85.4523 48.3106C85.4523 48.3106 85.4461 48.8484 85.4453 49.7263C85.4523 50.3846 85.9139 50.8119 86.5781 50.6751C86.9969 50.5882 87.3321 50.5105 87.3321 50.5105L87.3399 51.9241C87.3453 52.4833 86.5061 52.8495 85.6347 52.8293C84.4136 52.7976 83.7365 51.8487 83.719 50.0432C83.7569 47.6691 84.8737 46.2754 86.3949 45.8863C87.1546 45.6907 87.8459 45.7859 88.3829 45.8556C89.6943 46.0674 90.4494 45.4352 90.4762 44.3514C90.5036 43.1907 89.4739 42.4728 87.264 42.5495C82.4721 42.7149 80.0219 46.1578 80.0219 50.2667C80.0219 54.4746 82.7709 56.3334 86.1263 55.7269C88.0224 55.3445 88.9656 54.7288 89.6192 54.1557C90.2726 53.5826 90.542 52.7253 90.542 51.9933V47.1549Z" fill="#EC1D23"/>
<path d="M70.4893 33.3916C64.8763 35.8694 61.0866 41.7673 60.8784 44.2639C60.7963 45.2564 62.1121 45.3988 62.2359 44.345C63.4204 39.7909 67.0454 35.4973 70.4893 33.3916Z" fill="white"/>
<path d="M89.0895 37.6233C92.1169 36.8807 93.7795 36.7687 93.8094 35.4163C93.862 33.1516 87.401 30.5257 81.485 31.0013C87.5128 31.4041 91.1285 33.7247 91.1484 35.3419C91.1598 36.3648 90.2734 37.2675 89.0895 37.6233Z" fill="white"/>
<path d="M90.9655 87.6784C95.5081 85.8917 99.8735 82.4788 102.289 77.3666C102.986 75.8892 100.97 75.1345 100.401 76.8693C98.9877 80.5039 96.0825 84.7715 90.9655 87.6784Z" fill="white"/>
<path fill-rule="evenodd" clip-rule="evenodd" d="M111.026 73.603C111.026 75.6219 112.629 76.9248 114.427 76.9248C116.226 76.9248 117.829 75.6219 117.829 73.603C117.829 71.5923 116.226 70.2984 114.427 70.2984C112.629 70.2987 111.026 71.5923 111.026 73.603ZM113.843 75.4545H113.108H113.107V71.7422H114.508C115.437 71.7422 115.959 72.0356 115.959 72.8422C115.959 73.5237 115.535 73.7885 114.986 73.8344L115.978 75.4545H115.207L114.304 73.8695H113.843V75.4545ZM114.463 72.3197H113.843H113.842V73.2928H114.499C114.915 73.2928 115.225 73.2316 115.225 72.7798C115.225 72.3811 114.8 72.3197 114.463 72.3197ZM114.427 71.0073C113.035 71.0073 111.93 72.0967 111.93 73.603C111.93 75.1185 113.036 76.2162 114.427 76.2162C115.801 76.2162 116.925 75.1185 116.925 73.603C116.925 72.0967 115.801 71.0073 114.427 71.0073Z" fill="#EC1D23"/>
<defs>
<filter id="filter0_d_1_349" x="0" y="0" width="160.051" height="160.051" filterUnits="userSpaceOnUse" color-interpolation-filters="sRGB">
<feFlood flood-opacity="0" result="BackgroundImageFix"/>
<feColorMatrix in="SourceAlpha" type="matrix" values="0 0 0 0 0 0 0 0 0 0 0 0 0 0 0 0 0 0 127 0" result="hardAlpha"/>
<feOffset dy="16"/>
<feGaussianBlur stdDeviation="16"/>
<feColorMatrix type="matrix" values="0 0 0 0 0.34902 0 0 0 0 0.160784 0 0 0 0 0.109804 0 0 0 0.38 0"/>
<feBlend mode="normal" in2="BackgroundImageFix" result="effect1_dropShadow_1_349"/>
<feBlend mode="normal" in="SourceGraphic" in2="effect1_dropShadow_1_349" result="shape"/>
</filter>
</defs>
</svg>
